<svg width="629" height="435" viewBox="0 0 629 435" fill="none" xmlns="http://www.w3.org/2000/svg">
<rect width="1440" height="1024" transform="translate(-298 -290)" fill="white"/>
<rect width="629" height="435" fill="#A2EFCA"/>
<path d="M292.5 274.5L117 207L231.5 74.5L379.5 135L292.5 274.5Z" fill="#6E3DBF"/>
<path d="M117 207L292.5 274.5L379.5 135M117 207L231.5 74.5L379.5 135M117 207L231.5 113.5M117 207L267.5 238.5L379.5 135M117 207L240 135M117 207L253 215.5L379.5 135M117 207L240 163L379.5 135M117 207L253 195.5L379.5 135M379.5 135L231.5 113.5M379.5 135H240M231.5 113.5L240 135" stroke="black"/>
</svg>
